<svg xmlns="http://www.w3.org/2000/svg" viewBox="0 0 200 200" width="200" height="200">
  <!-- Mão azul -->
  <path d="M70 100 C65 95, 60 90, 60 85 C60 80, 70 75, 75 80 L90 95 C92 97, 95 97, 98 95 C102 91, 102 85, 98 81 L85 70 C80 65, 85 55, 90 60 L115 85 C120 90, 125 95, 130 100 L70 100 Z" fill="#0077B6"/>

  <!-- Mão cinza -->
  <path d="M130 100 C135 105, 140 110, 140 115 C140 120, 130 125, 125 120 L110 105 C108 103, 105 103, 102 105 C98 109, 98 115, 102 119 L115 130 C120 135, 115 145, 110 140 L85 115 C80 110, 75 105, 70 100 L130 100 Z" fill="#495057"/>
</svg>
